<svg width="113" height="20" viewBox="0 0 113 20" fill="none" xmlns="http://www.w3.org/2000/svg">
<path d="M2.39453 19H0.144531V1.9375H2.39453V19Z" fill="#0696B7"/>
<path d="M9.43047 6.32031L9.50078 7.91406C10.4695 6.69531 11.7352 6.08594 13.2977 6.08594C15.9773 6.08594 17.3289 7.59766 17.3523 10.6211V19H15.1844V10.6094C15.1766 9.69531 14.9656 9.01953 14.5516 8.58203C14.1453 8.14453 13.5086 7.92578 12.6414 7.92578C11.9383 7.92578 11.3211 8.11328 10.7898 8.48828C10.2586 8.86328 9.84453 9.35547 9.54766 9.96484V19H7.37969V6.32031H9.43047Z" fill="#0696B7"/>
<path d="M22.8883 19V7.99609H20.8844V6.32031H22.8883V5.01953C22.8883 3.66016 23.2516 2.60938 23.9781 1.86719C24.7047 1.125 25.732 0.753906 27.0602 0.753906C27.5602 0.753906 28.0562 0.820312 28.5484 0.953125L28.4312 2.71094C28.0641 2.64062 27.6734 2.60547 27.2594 2.60547C26.5562 2.60547 26.0133 2.8125 25.6305 3.22656C25.2477 3.63281 25.0562 4.21875 25.0562 4.98438V6.32031H27.7633V7.99609H25.0562V19H22.8883Z" fill="#0696B7"/>
<path d="M30.7914 12.543C30.7914 11.3008 31.0336 10.1836 31.518 9.19141C32.0102 8.19922 32.6898 7.43359 33.557 6.89453C34.432 6.35547 35.4281 6.08594 36.5453 6.08594C38.2719 6.08594 39.6664 6.68359 40.7289 7.87891C41.7992 9.07422 42.3344 10.6641 42.3344 12.6484V12.8008C42.3344 14.0352 42.0961 15.1445 41.6195 16.1289C41.1508 17.1055 40.475 17.8672 39.5922 18.4141C38.7172 18.9609 37.7094 19.2344 36.5687 19.2344C34.85 19.2344 33.4555 18.6367 32.3852 17.4414C31.3227 16.2461 30.7914 14.6641 30.7914 12.6953V12.543ZM32.9711 12.8008C32.9711 14.207 33.2953 15.3359 33.9437 16.1875C34.6 17.0391 35.475 17.4648 36.5687 17.4648C37.6703 17.4648 38.5453 17.0352 39.1937 16.1758C39.8422 15.3086 40.1664 14.0977 40.1664 12.543C40.1664 11.1523 39.8344 10.0273 39.1703 9.16797C38.5141 8.30078 37.6391 7.86719 36.5453 7.86719C35.475 7.86719 34.6117 8.29297 33.9555 9.14453C33.2992 9.99609 32.9711 11.2148 32.9711 12.8008Z" fill="#0696B7"/>
<path d="M52.382 8.26562C52.0539 8.21094 51.6984 8.18359 51.3156 8.18359C49.8937 8.18359 48.9289 8.78906 48.4211 10V19H46.2531V6.32031H48.3625L48.3977 7.78516C49.1086 6.65234 50.1164 6.08594 51.4211 6.08594C51.843 6.08594 52.1633 6.14062 52.382 6.25V8.26562Z" fill="#0696B7"/>
<path d="M57.625 6.32031L57.6836 7.72656C58.6133 6.63281 59.8672 6.08594 61.4453 6.08594C63.2188 6.08594 64.4258 6.76562 65.0664 8.125C65.4883 7.51562 66.0352 7.02344 66.707 6.64844C67.3867 6.27344 68.1875 6.08594 69.1094 6.08594C71.8906 6.08594 73.3047 7.55859 73.3516 10.5039V19H71.1836V10.6328C71.1836 9.72656 70.9766 9.05078 70.5625 8.60547C70.1484 8.15234 69.4531 7.92578 68.4766 7.92578C67.6719 7.92578 67.0039 8.16797 66.4727 8.65234C65.9414 9.12891 65.6328 9.77344 65.5469 10.5859V19H63.3672V10.6914C63.3672 8.84766 62.4648 7.92578 60.6602 7.92578C59.2383 7.92578 58.2656 8.53125 57.7422 9.74219V19H55.5742V6.32031H57.625Z" fill="#0696B7"/>
<path d="M84.1172 1.9375L88.5 14.3125L92.8594 1.9375H97.4766V19H93.9492V14.3359L94.3008 6.28516L89.6953 19H87.2812L82.6875 6.29688L83.0391 14.3359V19H79.5234V1.9375H84.1172Z" fill="#FFA500"/>
<path d="M107.36 19.2344C105.501 19.2344 103.985 18.6641 102.813 17.5234C101.649 16.3828 101.067 14.8633 101.067 12.9648V12.6367C101.067 11.3633 101.313 10.2266 101.805 9.22656C102.298 8.21875 102.993 7.44531 103.891 6.90625C104.798 6.35938 105.829 6.08594 106.985 6.08594C108.72 6.08594 110.083 6.63281 111.075 7.72656C112.075 8.82031 112.575 10.3711 112.575 12.3789V13.7617H104.501C104.61 14.5898 104.938 15.2539 105.485 15.7539C106.04 16.2539 106.739 16.5039 107.583 16.5039C108.888 16.5039 109.907 16.0312 110.641 15.0859L112.305 16.9492C111.798 17.668 111.11 18.2305 110.243 18.6367C109.376 19.0352 108.415 19.2344 107.36 19.2344ZM106.973 8.82812C106.302 8.82812 105.755 9.05469 105.333 9.50781C104.919 9.96094 104.653 10.6094 104.536 11.4531H109.247V11.1836C109.231 10.4336 109.028 9.85547 108.638 9.44922C108.247 9.03516 107.692 8.82812 106.973 8.82812Z" fill="#FFA500"/>
</svg>
